<svg width="32" height="32" viewBox="0 0 32 32" fill="none" xmlns="http://www.w3.org/2000/svg">
<circle cx="16" cy="16" r="16" fill="#B8B7F9" fill-opacity="0.22"/>
<g clip-path="url(#clip0_813_323)">
<path d="M23.4782 22.9565H22.7826V19.3043C22.7826 18.4413 22.0805 17.7391 21.2174 17.7391H20.6956V14.0869C20.6956 13.2238 19.9935 12.5217 19.1304 12.5217H16.5217V12.0778C17.1277 11.8617 17.5652 11.288 17.5652 10.6087C17.5652 10.3349 17.4932 10.065 17.3566 9.82828C17.3566 9.82828 17.3563 9.82809 17.3563 9.82794L16.4517 8.26087C16.3587 8.0995 16.1865 8 16 8C15.8135 8 15.6413 8.0995 15.5483 8.26087L14.6433 9.82828C14.5068 10.065 14.4348 10.3349 14.4348 10.6087C14.4348 11.288 14.8723 11.8617 15.4783 12.0778V12.5217H12.8696C12.0065 12.5217 11.3043 13.2238 11.3043 14.0869V17.7391H10.7826C9.91953 17.7391 9.21741 18.4413 9.21741 19.3043C9.21741 19.432 9.21741 21.8617 9.21741 22.9565H8.52175C8.23372 22.9565 8 23.1901 8 23.4782C8 23.7665 8.23372 24 8.52175 24H23.4783C23.7663 24 24 23.7665 24 23.4782C24 23.1901 23.7663 22.9565 23.4782 22.9565ZM15.5472 10.3497L16 9.56541L16.4528 10.3497C16.4987 10.4292 16.5218 10.5163 16.5218 10.6087C16.5218 10.8964 16.2877 11.1305 16 11.1305C15.7123 11.1305 15.4783 10.8964 15.4783 10.6087C15.4783 10.5163 15.5017 10.429 15.5472 10.3497ZM12.3478 14.087C12.3478 13.7993 12.5819 13.5652 12.8696 13.5652H19.1304C19.4181 13.5652 19.6522 13.7993 19.6522 14.087V15.5888C19.6027 15.539 19.552 15.4863 19.4919 15.4208C19.1892 15.0917 18.7748 14.6408 18.0639 14.6408C17.3533 14.6408 16.9392 15.0915 16.6366 15.4205C16.3475 15.7352 16.2068 15.8632 15.9769 15.8632C15.7398 15.8632 15.5873 15.7109 15.3159 15.4188C15.0109 15.0905 14.5934 14.6408 13.89 14.6408C13.1794 14.6408 12.7653 15.0915 12.463 15.4205C12.4207 15.4666 12.3851 15.5032 12.3478 15.5421L12.3478 14.087ZM21.7391 19.9414C21.3193 20.0865 21.034 20.3949 20.8105 20.6379C20.5214 20.9527 20.3807 21.0807 20.1508 21.0807C19.9212 21.0807 19.7809 20.9526 19.4918 20.6383C19.1892 20.3091 18.7748 19.8582 18.0638 19.8582C17.3532 19.8582 16.9392 20.3089 16.6365 20.6379C16.3475 20.9526 16.2068 21.0807 15.9769 21.0807C15.7398 21.0807 15.5873 20.9283 15.3159 20.6362C15.0108 20.3079 14.5934 19.8582 13.8899 19.8582C13.1793 19.8582 12.7653 20.3089 12.4626 20.6379C12.1736 20.9526 12.0329 21.0807 11.803 21.0807C11.5547 21.0807 11.3464 20.8717 11.0329 20.5277C10.8132 20.2867 10.5713 20.0242 10.2608 19.8502V19.3044C10.2608 19.0167 10.4949 18.7826 10.7826 18.7826H21.2174C21.5051 18.7826 21.7391 19.0167 21.7391 19.3044V19.9414Z" fill="#5451F2"/>
</g>
<defs>
<clipPath id="clip0_813_323">
<rect width="16" height="16" fill="white" transform="translate(8 8)"/>
</clipPath>
</defs>
</svg>
