<svg width="48" height="48" viewBox="0 0 48 48" fill="none" xmlns="http://www.w3.org/2000/svg">
<g clip-path="url(#clip0_98_2772)">
<path d="M34.2857 0H13.7143C6.14009 0 0 6.14009 0 13.7143V34.2857C0 41.8599 6.14009 48 13.7143 48H34.2857C41.8599 48 48 41.8599 48 34.2857V13.7143C48 6.14009 41.8599 0 34.2857 0Z" fill="url(#paint0_linear_98_2772)"/>
<path d="M24.6025 29.7827C24.3104 29.9849 24.0389 30.1715 23.7681 30.3569C21.8692 31.7015 19.8796 32.7795 17.8286 33.5751C16.7318 34.0001 15.6278 34.3916 14.4912 34.5691C13.4974 34.7234 12.5073 34.9165 11.5154 35.0876C11.4125 35.1057 11.3087 35.1083 11.2085 35.1173C11.1418 34.7609 11.113 13.6259 11.1844 12.9H17.1482V24.995C17.1986 25.0032 17.2496 25.0032 17.3001 24.995C18.3022 24.5657 19.2804 24.0342 20.2268 23.4047C20.9101 22.9576 21.5868 22.4845 22.2478 21.9791C23.3842 21.0903 24.4691 20.0784 25.4924 18.9527C26.6918 17.6381 27.7994 16.1674 28.8001 14.5603C29.0829 14.108 29.3563 13.6388 29.6178 13.1645C29.66 13.0691 29.7192 12.9906 29.7896 12.9367C29.8598 12.8829 29.939 12.8555 30.0193 12.8573C32.2639 12.8642 34.5086 12.8642 36.7533 12.8573C36.7881 12.8597 36.8228 12.8653 36.8571 12.8741C36.7922 13.4146 36.0478 15.1047 34.901 17.3261C34.161 18.7467 33.3559 20.0987 32.4907 21.3737C31.6152 22.665 30.6833 23.8792 29.7003 25.0093L36.8432 34.9994L36.8191 35.1122C36.6884 35.1213 36.5586 35.1381 36.4279 35.1381L29.7281 35.1317C29.4027 35.1317 29.0792 35.12 28.751 35.1407C28.6537 35.1503 28.5563 35.1283 28.466 35.0766C28.3759 35.0249 28.2954 34.9449 28.2309 34.8426C27.1185 33.2705 25.9958 31.7139 24.876 30.1521C24.799 30.0419 24.7137 29.9318 24.6025 29.7827Z" fill="white"/>
</g>
<defs>
<linearGradient id="paint0_linear_98_2772" x1="24" y1="0" x2="24" y2="48" gradientUnits="userSpaceOnUse">
<stop stop-color="#5451F2"/>
<stop offset="1" stop-color="#101828"/>
</linearGradient>
<clipPath id="clip0_98_2772">
<rect width="48" height="48" fill="white"/>
</clipPath>
</defs>
</svg>
