<svg width="52" height="52" viewBox="0 0 52 52" fill="none" xmlns="http://www.w3.org/2000/svg">
<rect x="2" y="2" width="48" height="48" rx="24" fill="#F4EBFF"/>
<rect x="2" y="2" width="48" height="48" rx="24" stroke="#F9F5FF" stroke-width="4"/>
<path d="M28 16.2695V20.4C28 20.9601 28 21.2401 28.109 21.454C28.2049 21.6422 28.3578 21.7951 28.546 21.891C28.7599 22 29.0399 22 29.6 22H33.7305M34 23.9882V31.2C34 32.8802 34 33.7202 33.673 34.362C33.3854 34.9265 32.9265 35.3854 32.362 35.673C31.7202 36 30.8802 36 29.2 36H22.8C21.1198 36 20.2798 36 19.638 35.673C19.0735 35.3854 18.6146 34.9265 18.327 34.362C18 33.7202 18 32.8802 18 31.2V20.8C18 19.1198 18 18.2798 18.327 17.638C18.6146 17.0735 19.0735 16.6146 19.638 16.327C20.2798 16 21.1198 16 22.8 16H26.0118C26.7455 16 27.1124 16 27.4577 16.0829C27.7638 16.1564 28.0564 16.2776 28.3249 16.4421C28.6276 16.6276 28.887 16.887 29.4059 17.4059L32.5941 20.5941C33.113 21.113 33.3724 21.3724 33.5579 21.6751C33.7224 21.9436 33.8436 22.2362 33.9171 22.5423C34 22.8876 34 23.2545 34 23.9882Z" stroke="#7F56D9" stroke-width="1.33333" stroke-linecap="round" stroke-linejoin="round"/>
</svg>
