<svg width="14" height="14" viewBox="0 0 14 14" fill="none" xmlns="http://www.w3.org/2000/svg">
<g clip-path="url(#clip0_975_11395)">
<path d="M11.914 0.344921C11.914 0.327213 11.914 0.318359 11.914 0.318359C11.914 0.229817 11.945 0.154557 12.007 0.0925779C12.069 0.0305986 12.1442 -0.000391006 12.2328 -0.000391006H13.4812C13.6937 -0.000391006 13.8 0.105859 13.8 0.318359V5.63086C13.8 5.7194 13.769 5.79466 13.707 5.85664C13.645 5.91862 13.5697 5.94961 13.4812 5.94961H8.1687C8.08016 5.94961 8.0049 5.91862 7.94292 5.85664C7.88094 5.79466 7.84995 5.7194 7.84995 5.63086V4.38242C7.84995 4.29388 7.88094 4.21862 7.94292 4.15664C8.0049 4.09466 8.08016 4.06367 8.1687 4.06367L10.8781 4.19648C10.4531 3.55898 9.89969 3.0543 9.21792 2.68242C8.53615 2.31055 7.79683 2.12461 6.99995 2.12461C5.90203 2.12461 4.9325 2.46107 4.09136 3.13398C3.25021 3.8069 2.70568 4.66576 2.45776 5.71055C2.42235 5.86992 2.3161 5.94961 2.13901 5.94961H0.837451C0.74891 5.94961 0.673649 5.91862 0.61167 5.85664C0.549691 5.79466 0.518701 5.7194 0.518701 5.63086C0.518701 5.61315 0.518701 5.59544 0.518701 5.57773C0.819743 4.03711 1.57677 2.75768 2.78979 1.73945C4.00282 0.721224 5.4062 0.212109 6.99995 0.212109C7.99162 0.212109 8.92131 0.415755 9.78901 0.823047C10.6567 1.23034 11.4005 1.797 12.0203 2.52305L11.914 0.344921ZM6.99995 11.4746C8.08016 11.4746 9.04526 11.1382 9.89526 10.4652C10.7453 9.79232 11.2942 8.93346 11.5421 7.88867C11.5776 7.7293 11.6838 7.64961 11.8609 7.64961H13.1625C13.251 7.64961 13.3263 7.6806 13.3882 7.74258C13.4502 7.80456 13.4812 7.87982 13.4812 7.96836C13.4812 7.98607 13.4723 8.00378 13.4546 8.02148C13.1713 9.56211 12.4231 10.8415 11.2101 11.8598C9.99709 12.878 8.5937 13.3871 6.99995 13.3871C6.00828 13.3871 5.0786 13.1835 4.21089 12.7762C3.34318 12.3689 2.59943 11.8022 1.97964 11.0762L2.08589 13.2543C2.08589 13.272 2.08589 13.2809 2.08589 13.2809C2.08589 13.3694 2.0549 13.4447 1.99292 13.5066C1.93094 13.5686 1.85568 13.5996 1.76714 13.5996H0.518701C0.306201 13.5996 0.199951 13.4934 0.199951 13.2809V7.96836C0.199951 7.87982 0.230941 7.80456 0.29292 7.74258C0.354899 7.6806 0.43016 7.64961 0.518701 7.64961H5.8312C5.91974 7.64961 5.995 7.6806 6.05698 7.74258C6.11896 7.80456 6.14995 7.87982 6.14995 7.96836V9.2168C6.14995 9.30534 6.11896 9.3806 6.05698 9.44258C5.995 9.50456 5.91974 9.53555 5.8312 9.53555L3.12183 9.40273C3.54683 10.0402 4.10021 10.5449 4.78198 10.9168C5.46375 11.2887 6.20308 11.4746 6.99995 11.4746Z" fill="#525252"/>
</g>
<defs>
<clipPath id="clip0_975_11395">
<rect width="14" height="13.6" fill="white" transform="matrix(1 0 0 -1 0 13.5996)"/>
</clipPath>
</defs>
</svg>
