<svg width="10" height="14" viewBox="0 0 10 14" fill="none" xmlns="http://www.w3.org/2000/svg">
<g clip-path="url(#clip0_975_11387)">
<path d="M6.588 7.2L9.24149 9.85625C9.4007 10.0156 9.48031 10.2104 9.48031 10.4406C9.48031 10.6708 9.4007 10.8745 9.24149 11.0516L8.65772 11.6359C8.48082 11.7953 8.27739 11.875 8.04742 11.875C7.81745 11.875 7.62286 11.7953 7.46365 11.6359L4.81016 8.97969L2.15667 11.6359C1.99746 11.7953 1.80287 11.875 1.5729 11.875C1.34293 11.875 1.1395 11.7953 0.962597 11.6359L0.378829 11.0516C0.219619 10.8745 0.140015 10.6708 0.140015 10.4406C0.140015 10.2104 0.219619 10.0156 0.378829 9.85625L3.03232 7.2L0.378829 4.54375C0.219619 4.38437 0.140015 4.18958 0.140015 3.95937C0.140015 3.72917 0.219619 3.52552 0.378829 3.34844L0.962597 2.76406C1.1395 2.60469 1.34293 2.525 1.5729 2.525C1.80287 2.525 1.99746 2.60469 2.15667 2.76406L4.81016 5.42031L7.46365 2.76406C7.62286 2.60469 7.81745 2.525 8.04742 2.525C8.27739 2.525 8.48082 2.60469 8.65772 2.76406L9.24149 3.34844C9.4007 3.52552 9.48031 3.72917 9.48031 3.95937C9.48031 4.18958 9.4007 4.38437 9.24149 4.54375L6.588 7.2Z" fill="#525252"/>
</g>
<defs>
<clipPath id="clip0_975_11387">
<rect width="9.62" height="13.6" fill="white" transform="matrix(1 0 0 -1 0 14)"/>
</clipPath>
</defs>
</svg>
