<svg width="14" height="14" viewBox="0 0 14 14" fill="none" xmlns="http://www.w3.org/2000/svg">
<g clip-path="url(#clip0_975_11399)">
<path d="M10.825 1.43359C11.675 2.03568 12.3479 2.81042 12.8437 3.75781C13.3396 4.70521 13.5875 5.71901 13.5875 6.79922C13.5875 8.62318 12.9455 10.1771 11.6617 11.4609C10.3778 12.7448 8.82393 13.3867 6.99998 13.3867C5.81352 13.3867 4.7156 13.0945 3.70623 12.5102C2.69685 11.9258 1.89555 11.1289 1.30232 10.1195C0.70909 9.11016 0.412476 8.00339 0.412476 6.79922C0.412476 6.07318 0.52758 5.3737 0.757788 4.70078C0.987996 4.02786 1.30675 3.41693 1.71404 2.86797C2.12133 2.31901 2.60831 1.84089 3.17498 1.43359C3.33435 1.32734 3.50701 1.29635 3.69294 1.34062C3.87888 1.3849 4.01612 1.48672 4.10466 1.64609L4.52966 2.38984C4.6005 2.53151 4.61821 2.68203 4.58279 2.84141C4.54737 3.00078 4.46768 3.12474 4.34373 3.21328C4.06039 3.42578 3.80805 3.66042 3.58669 3.91719C3.36534 4.17396 3.1794 4.45286 3.02888 4.75391C2.87836 5.05495 2.75883 5.37813 2.67029 5.72344C2.58175 6.06875 2.53748 6.42734 2.53748 6.79922C2.53748 8.02109 2.97133 9.07031 3.83904 9.94687C4.70675 10.8234 5.76039 11.2617 6.99998 11.2617C8.22185 11.2617 9.27107 10.8279 10.1476 9.96016C11.0242 9.09245 11.4625 8.02995 11.4625 6.77266C11.4625 6.08203 11.3031 5.4224 10.9844 4.79375C10.6656 4.1651 10.2229 3.63828 9.65623 3.21328C9.53227 3.12474 9.45258 3.00078 9.41716 2.84141C9.38175 2.68203 9.39946 2.53151 9.47029 2.38984L9.89529 1.64609C9.98383 1.48672 10.1211 1.3849 10.307 1.34062C10.4929 1.29635 10.6656 1.32734 10.825 1.43359ZM8.06248 7.01172C8.06248 7.1888 8.0005 7.33932 7.87654 7.46328C7.75258 7.58724 7.60206 7.64922 7.42498 7.64922H6.57498C6.39789 7.64922 6.24737 7.58724 6.12341 7.46328C5.99945 7.33932 5.93748 7.1888 5.93748 7.01172V0.636719C5.93748 0.459635 5.99945 0.309114 6.12341 0.185156C6.24737 0.0611973 6.39789 -0.000782013 6.57498 -0.000782013H7.42498C7.60206 -0.000782013 7.75258 0.0611973 7.87654 0.185156C8.0005 0.309114 8.06248 0.459635 8.06248 0.636719V7.01172Z" fill="#525252"/>
</g>
<defs>
<clipPath id="clip0_975_11399">
<rect width="14" height="13.6" fill="white" transform="matrix(1 0 0 -1 0 13.5996)"/>
</clipPath>
</defs>
</svg>
