<svg width="14" height="14" viewBox="0 0 14 14" fill="none" xmlns="http://www.w3.org/2000/svg">
<g clip-path="url(#clip0_975_11367)">
<path d="M13.614 11.7668C13.738 11.8908 13.8 12.0413 13.8 12.2184C13.8 12.3954 13.738 12.546 13.614 12.6699L12.8703 13.4137C12.7463 13.5376 12.5958 13.5996 12.4187 13.5996C12.2416 13.5996 12.0911 13.5376 11.9671 13.4137L9.31089 10.7574C9.18693 10.6335 9.12495 10.4829 9.12495 10.3059V9.88086C8.13328 10.66 6.99995 11.0496 5.72495 11.0496C4.20203 11.0496 2.90047 10.5095 1.82026 9.4293C0.740055 8.34909 0.199951 7.04753 0.199951 5.52461C0.199951 4.00169 0.740055 2.70013 1.82026 1.61992C2.90047 0.539713 4.20203 -0.000391006 5.72495 -0.000391006C7.24787 -0.000391006 8.54943 0.539713 9.62964 1.61992C10.7098 2.70013 11.25 4.00169 11.25 5.52461C11.25 6.79961 10.8604 7.93294 10.0812 8.92461H10.5062C10.6833 8.92461 10.8338 8.98659 10.9578 9.11055L13.614 11.7668ZM3.32104 7.92852C3.32104 7.92852 3.48706 8.09453 3.81909 8.42656C4.15112 8.75859 4.78641 8.92461 5.72495 8.92461C6.66349 8.92461 7.4648 8.59258 8.12886 7.92852C8.79292 7.26445 9.12495 6.46315 9.12495 5.52461C9.12495 4.58607 8.79292 3.78477 8.12886 3.1207C7.4648 2.45664 6.66349 2.12461 5.72495 2.12461C4.78641 2.12461 3.98511 2.45664 3.32104 3.1207C2.65698 3.78477 2.32495 4.58607 2.32495 5.52461C2.32495 6.46315 2.65698 7.26445 3.32104 7.92852Z" fill="#525252"/>
</g>
<defs>
<clipPath id="clip0_975_11367">
<rect width="14" height="13.6" fill="white" transform="matrix(1 0 0 -1 0 13.5996)"/>
</clipPath>
</defs>
</svg>
