<svg width="14" height="14" viewBox="0 0 14 14" fill="none" xmlns="http://www.w3.org/2000/svg">
<path d="M4.82183 11.6605L0.385889 7.25117C0.26193 7.12721 0.199951 6.96784 0.199951 6.77305C0.199951 6.57826 0.26193 6.41888 0.385889 6.29492L1.3687 5.33867C1.49266 5.197 1.64761 5.12617 1.83354 5.12617C2.01948 5.12617 2.18328 5.197 2.32495 5.33867L5.29995 8.31367L11.675 1.93867C11.8166 1.797 11.9804 1.72617 12.1664 1.72617C12.3523 1.72617 12.5072 1.797 12.6312 1.93867L13.614 2.89492C13.738 3.01888 13.8 3.17826 13.8 3.37305C13.8 3.56784 13.738 3.72721 13.614 3.85117L5.77808 11.6605C5.65412 11.8022 5.49474 11.873 5.29995 11.873C5.10516 11.873 4.94578 11.8022 4.82183 11.6605Z" fill="#525252"/>
</svg>
