<svg width="88" height="32" viewBox="0 0 88 32" fill="none" xmlns="http://www.w3.org/2000/svg">
<g clip-path="url(#clip0_98_2760)">
<path d="M22.8571 0H9.14286C4.0934 0 0 4.0934 0 9.14286V22.8571C0 27.9066 4.0934 32 9.14286 32H22.8571C27.9066 32 32 27.9066 32 22.8571V9.14286C32 4.0934 27.9066 0 22.8571 0Z" fill="white"/>
<path d="M16.4016 19.8551C16.2069 19.9899 16.0258 20.1143 15.8453 20.2379C14.5794 21.1343 13.253 21.8529 11.8856 22.3833C11.1545 22.6667 10.4184 22.9277 9.66071 23.046C8.99819 23.1489 8.33813 23.2776 7.67682 23.3917C7.60825 23.4037 7.53905 23.4055 7.47225 23.4115C7.42779 23.1739 7.40859 9.08386 7.45619 8.59998H11.432V16.6633C11.4657 16.6688 11.4997 16.6688 11.5333 16.6633C12.2014 16.3771 12.8535 16.0228 13.4845 15.6031C13.94 15.305 14.3911 14.9896 14.8318 14.6527C15.5894 14.0601 16.3126 13.3856 16.9949 12.6351C17.7945 11.7587 18.5329 10.7782 19.2 9.70683C19.3885 9.40529 19.5708 9.09249 19.7451 8.77626C19.7733 8.71266 19.8127 8.66038 19.8596 8.62443C19.9065 8.58855 19.9593 8.57032 20.0128 8.57146C21.5092 8.57609 23.0057 8.57609 24.5021 8.57146C24.5253 8.57306 24.5485 8.57683 24.5713 8.58266C24.5281 8.943 24.0318 10.0697 23.2673 11.5507C22.7739 12.4977 22.2372 13.3991 21.6604 14.2491C21.0767 15.11 20.4554 15.9194 19.8001 16.6728L24.5621 23.3329L24.546 23.4081C24.4589 23.4141 24.3723 23.4253 24.2852 23.4253L19.8186 23.4211C19.6017 23.4211 19.3861 23.4133 19.1673 23.4271C19.1024 23.4335 19.0374 23.4188 18.9773 23.3844C18.9172 23.3499 18.8635 23.2965 18.8205 23.2284C18.0789 22.1803 17.3305 21.1425 16.5839 20.1013C16.5326 20.0279 16.4757 19.9545 16.4016 19.8551Z" fill="black"/>
</g>
<path d="M43.2784 22V10.3636H45.0341V15.9205H45.1761L50.0568 10.3636H52.267L47.5739 15.6023L52.2841 22H50.1705L46.4091 16.8011L45.0341 18.3807V22H43.2784ZM55.6591 10.3636V22H53.9034V10.3636H55.6591ZM64.5625 13.4205C64.5019 12.8826 64.2519 12.4659 63.8125 12.1705C63.3731 11.8712 62.8201 11.7216 62.1534 11.7216C61.6761 11.7216 61.2633 11.7973 60.9148 11.9489C60.5663 12.0966 60.2955 12.3011 60.1023 12.5625C59.9129 12.8201 59.8182 13.1136 59.8182 13.4432C59.8182 13.7197 59.8826 13.9583 60.0114 14.1591C60.1439 14.3598 60.3163 14.5284 60.5284 14.6648C60.7443 14.7973 60.9754 14.9091 61.2216 15C61.4678 15.0871 61.7045 15.1591 61.9318 15.2159L63.0682 15.5114C63.4394 15.6023 63.8201 15.7254 64.2102 15.8807C64.6004 16.036 64.9621 16.2405 65.2955 16.4943C65.6288 16.7481 65.8977 17.0625 66.1023 17.4375C66.3106 17.8125 66.4148 18.2614 66.4148 18.7841C66.4148 19.4432 66.2443 20.0284 65.9034 20.5398C65.5663 21.0511 65.0758 21.4545 64.4318 21.75C63.7917 22.0455 63.017 22.1932 62.108 22.1932C61.2367 22.1932 60.483 22.0549 59.8466 21.7784C59.2102 21.5019 58.7121 21.1098 58.3523 20.6023C57.9924 20.0909 57.7936 19.4848 57.7557 18.7841H59.517C59.5511 19.2045 59.6875 19.5549 59.9261 19.8352C60.1686 20.1117 60.4773 20.3182 60.8523 20.4545C61.2311 20.5871 61.6458 20.6534 62.0966 20.6534C62.5928 20.6534 63.0341 20.5758 63.4205 20.4205C63.8106 20.2614 64.1174 20.0417 64.3409 19.7614C64.5644 19.4773 64.6761 19.1458 64.6761 18.767C64.6761 18.4223 64.5777 18.1402 64.3807 17.9205C64.1875 17.7008 63.9242 17.5189 63.5909 17.375C63.2614 17.2311 62.8883 17.1042 62.4716 16.9943L61.0966 16.6193C60.1648 16.3655 59.4261 15.9924 58.8807 15.5C58.339 15.0076 58.0682 14.3561 58.0682 13.5455C58.0682 12.875 58.25 12.2898 58.6136 11.7898C58.9773 11.2898 59.4697 10.9015 60.0909 10.625C60.7121 10.3447 61.4129 10.2045 62.1932 10.2045C62.9811 10.2045 63.6761 10.3428 64.2784 10.6193C64.8845 10.8958 65.3617 11.2765 65.7102 11.7614C66.0587 12.2424 66.2405 12.7955 66.2557 13.4205H64.5625ZM67.9389 11.875V10.3636H76.9446V11.875H73.3139V22H71.5639V11.875H67.9389ZM78.9347 22V10.3636H83.0824C83.9839 10.3636 84.732 10.5189 85.3267 10.8295C85.9252 11.1402 86.3722 11.5701 86.6676 12.1193C86.9631 12.6648 87.1108 13.2955 87.1108 14.0114C87.1108 14.7235 86.9612 15.3504 86.6619 15.892C86.3665 16.4299 85.9195 16.8485 85.321 17.1477C84.7263 17.447 83.9782 17.5966 83.0767 17.5966H79.9347V16.0852H82.9176C83.4858 16.0852 83.9479 16.0038 84.304 15.8409C84.6638 15.678 84.9271 15.4413 85.0938 15.1307C85.2604 14.8201 85.3438 14.447 85.3438 14.0114C85.3438 13.572 85.2585 13.1913 85.0881 12.8693C84.9214 12.5473 84.6581 12.3011 84.2983 12.1307C83.9422 11.9564 83.4744 11.8693 82.8949 11.8693H80.6903V22H78.9347ZM84.679 16.75L87.554 22H85.554L82.7358 16.75H84.679Z" fill="white"/>
<defs>
<clipPath id="clip0_98_2760">
<rect width="32" height="32" fill="white"/>
</clipPath>
</defs>
</svg>
