<svg width="112" height="56" viewBox="0 0 112 56" fill="none" xmlns="http://www.w3.org/2000/svg">
<path d="M65.056 37V25.08H67.536V31.048L66.848 30.808L71.616 25.08H74.72L70 30.776L70.144 29.016L74.816 37H71.92L69.008 31.96L67.536 33.736V37H65.056ZM76.4404 37V25.08H78.9204V37H76.4404ZM85.7701 37.192C85.0235 37.192 84.3195 37.0587 83.6581 36.792C83.0075 36.5147 82.4421 36.1253 81.9621 35.624C81.4928 35.1227 81.1408 34.5307 80.9061 33.848L82.9381 32.936C83.2368 33.5867 83.6475 34.0987 84.1701 34.472C84.7035 34.8453 85.2901 35.032 85.9301 35.032C86.2715 35.032 86.5648 34.9787 86.8101 34.872C87.0555 34.7653 87.2475 34.6213 87.3861 34.44C87.5248 34.248 87.5941 34.024 87.5941 33.768C87.5941 33.4907 87.5088 33.256 87.3381 33.064C87.1675 32.8613 86.9008 32.7013 86.5381 32.584L84.2021 31.816C83.2528 31.5067 82.5381 31.0693 82.0581 30.504C81.5781 29.928 81.3381 29.24 81.3381 28.44C81.3381 27.736 81.5088 27.1173 81.8501 26.584C82.2021 26.0507 82.6875 25.6347 83.3061 25.336C83.9355 25.0373 84.6555 24.888 85.4661 24.888C86.1808 24.888 86.8421 25.0107 87.4501 25.256C88.0581 25.5013 88.5808 25.848 89.0181 26.296C89.4661 26.744 89.8021 27.2827 90.0261 27.912L88.0101 28.824C87.7861 28.2693 87.4501 27.8373 87.0021 27.528C86.5541 27.208 86.0421 27.048 85.4661 27.048C85.1355 27.048 84.8421 27.1013 84.5861 27.208C84.3301 27.3147 84.1328 27.4693 83.9941 27.672C83.8555 27.864 83.7861 28.088 83.7861 28.344C83.7861 28.6213 83.8768 28.8667 84.0581 29.08C84.2395 29.2827 84.5115 29.4427 84.8741 29.56L87.1621 30.296C88.1221 30.6053 88.8368 31.0373 89.3061 31.592C89.7861 32.1467 90.0261 32.824 90.0261 33.624C90.0261 34.3173 89.8448 34.936 89.4821 35.48C89.1195 36.0133 88.6181 36.4347 87.9781 36.744C87.3488 37.0427 86.6128 37.192 85.7701 37.192ZM94.3375 37V27.24H91.3135V25.08H99.7935V27.24H96.8175V37H94.3375ZM101.422 37V25.08H105.982C106.803 25.08 107.528 25.224 108.158 25.512C108.798 25.8 109.299 26.2267 109.662 26.792C110.024 27.3573 110.206 28.056 110.206 28.888C110.206 29.6987 110.019 30.392 109.646 30.968C109.272 31.5333 108.771 31.96 108.142 32.248L110.862 37H108.078L105.134 31.736L106.734 32.68H103.902V37H101.422ZM103.902 30.52H105.998C106.35 30.52 106.654 30.4507 106.91 30.312C107.166 30.1733 107.363 29.9813 107.502 29.736C107.651 29.4907 107.726 29.208 107.726 28.888C107.726 28.5573 107.651 28.2693 107.502 28.024C107.363 27.7787 107.166 27.5867 106.91 27.448C106.654 27.3093 106.35 27.24 105.998 27.24H103.902V30.52Z" fill="#242220"/>
<rect width="56" height="56" rx="16" fill="white"/>
<path d="M28.7029 34.7465C28.3622 34.9824 28.0454 35.2001 27.7295 35.4163C25.5141 36.985 23.1929 38.2427 20.8 39.1709C19.5205 39.6668 18.2324 40.1235 16.9064 40.3306C15.747 40.5106 14.5919 40.7359 13.4346 40.9355C13.3146 40.9566 13.1935 40.9597 13.0766 40.9702C12.9988 40.5544 12.9652 15.8968 13.0485 15.05H20.0062V29.1608C20.0651 29.1704 20.1246 29.1704 20.1835 29.1608C21.3526 28.66 22.4938 28.0399 23.598 27.3055C24.3951 26.7838 25.1846 26.2319 25.9558 25.6422C27.2816 24.6053 28.5473 23.4248 29.7412 22.1115C31.1405 20.5777 32.4327 18.8619 33.6002 16.987C33.9301 16.4593 34.2491 15.9119 34.5541 15.3585C34.6034 15.2472 34.6724 15.1557 34.7545 15.0928C34.8365 15.03 34.9289 14.9981 35.0225 15.0001C37.6413 15.0082 40.2601 15.0082 42.8789 15.0001C42.9195 15.0029 42.96 15.0095 43 15.0197C42.9243 15.6503 42.0558 17.6221 40.7179 20.2138C39.8545 21.8711 38.9152 23.4485 37.9059 24.936C36.8844 26.4425 35.7972 27.859 34.6504 29.1775L42.9838 40.8326L42.9557 40.9642C42.8032 40.9748 42.6517 40.9944 42.4992 40.9944L34.6828 40.9869C34.3032 40.9869 33.9258 40.9733 33.5429 40.9975C33.4294 41.0086 33.3157 40.983 33.2104 40.9227C33.1052 40.8624 33.0113 40.769 32.9361 40.6497C31.6383 38.8155 30.3285 36.9995 29.022 35.1774C28.9322 35.0489 28.8327 34.9204 28.7029 34.7465Z" fill="black"/>
</svg>
