<svg width="32" height="32" viewBox="0 0 32 32" fill="none" xmlns="http://www.w3.org/2000/svg">
<circle cx="16" cy="16" r="16" fill="#B8B7F9" fill-opacity="0.22"/>
<g clip-path="url(#clip0_4_12922)">
<path d="M22.218 10.9543C22.218 12.0315 21.3448 12.9047 20.2678 12.9047C19.1907 12.9047 18.3175 12.0315 18.3175 10.9543C18.3175 9.87732 19.1907 9.00415 20.2678 9.00415C21.3448 9.00415 22.218 9.87732 22.218 10.9543Z" fill="#3A38A9"/>
<path d="M16.8922 13.4806L15.9666 12.0925V9.72412C15.9666 8.77905 15.2043 8 14.2428 8H9.72412C8.76746 8 8 8.77441 8 9.72412V12.4854C8 13.4329 8.76465 14.2094 9.72412 14.2094H16.5022C16.8756 14.2094 17.0997 13.7919 16.8922 13.4806ZM11.9702 12.4521H10.4902C10.2378 12.4521 10.0206 12.2579 10.0089 12.0057C9.99658 11.7365 10.2107 11.5146 10.4772 11.5146H11.9835C12.2495 11.5146 12.4641 11.7365 12.4517 12.0056C12.4401 12.2579 12.2228 12.4521 11.9702 12.4521ZM13.4897 10.6947H10.4905C10.2382 10.6947 10.0211 10.501 10.009 10.249C9.99609 9.97974 10.2104 9.7572 10.4772 9.7572H13.4764C13.729 9.7572 13.9463 9.95142 13.9579 10.2037C13.9703 10.4729 13.7557 10.6947 13.4897 10.6947Z" fill="#3A38A9"/>
<path d="M11.6401 19.6297C9.62122 19.6366 8 21.3034 8 23.3223V23.4251C8 23.7426 8.25732 23.9999 8.57483 23.9999H14.7312C15.0487 23.9999 15.306 23.7426 15.306 23.4251V23.2826C15.306 21.2608 13.6636 19.6226 11.6401 19.6297Z" fill="#3A38A9"/>
<path d="M13.9534 17.3296C13.9534 18.6 12.9236 19.6299 11.6531 19.6299C10.3827 19.6299 9.35278 18.6 9.35278 17.3296C9.35278 16.0592 10.3827 15.0293 11.6531 15.0293C12.9236 15.0293 13.9534 16.0592 13.9534 17.3296Z" fill="#3A38A9"/>
<path d="M23.226 15.5314H17.3093C17.4838 14.0524 18.7416 12.9048 20.2678 12.9048C21.7937 12.9048 23.0515 14.0524 23.226 15.5314Z" fill="#3A38A9"/>
<path d="M23.5312 16.5C23.7902 16.5 24 16.7098 24 16.9688V22.5272C24 22.7935 23.7778 23.0082 23.5084 22.9954C23.2566 22.9834 23.0625 22.7662 23.0625 22.5138V21.9916H16.0585C15.7434 20.9191 15.0469 20.0078 14.126 19.4169C14.6028 18.8528 14.891 18.124 14.891 17.3293C14.891 17.0428 14.8534 16.765 14.7831 16.5H23.5312Z" fill="#3A38A9"/>
</g>
<defs>
<clipPath id="clip0_4_12922">
<rect width="16" height="16" fill="white" transform="translate(8 8)"/>
</clipPath>
</defs>
</svg>
