<svg width="32" height="32" viewBox="0 0 32 32" fill="none" xmlns="http://www.w3.org/2000/svg">
<circle cx="16" cy="16" r="16" fill="#B8B7F9" fill-opacity="0.22"/>
<g clip-path="url(#clip0_813_725)">
<path d="M19.4375 11.7812C20.3004 11.7812 21 11.0817 21 10.2188C21 9.35581 20.3004 8.65625 19.4375 8.65625C18.5746 8.65625 17.875 9.35581 17.875 10.2188C17.875 11.0817 18.5746 11.7812 19.4375 11.7812Z" fill="#5451F2"/>
<path d="M12.5625 11.7812C13.4254 11.7812 14.125 11.0817 14.125 10.2188C14.125 9.35581 13.4254 8.65625 12.5625 8.65625C11.6996 8.65625 11 9.35581 11 10.2188C11 11.0817 11.6996 11.7812 12.5625 11.7812Z" fill="#5451F2"/>
<path d="M19.4375 20.0625C20.3004 20.0625 21 19.3629 21 18.5C21 17.6371 20.3004 16.9375 19.4375 16.9375C18.5746 16.9375 17.875 17.6371 17.875 18.5C17.875 19.3629 18.5746 20.0625 19.4375 20.0625Z" fill="#5451F2"/>
<path d="M21.1643 20.3052C20.7151 20.735 20.1068 20.9999 19.4375 20.9999C18.7682 20.9999 18.1599 20.735 17.7107 20.3052C16.9593 20.8444 16.4688 21.7253 16.4688 22.7187V22.8749C16.4688 23.1338 16.6786 23.3437 16.9375 23.3437H21.9375C22.1964 23.3437 22.4062 23.1338 22.4062 22.8749V22.7187C22.4062 21.7253 21.9157 20.8444 21.1643 20.3052Z" fill="#5451F2"/>
<path d="M12.5625 20.0625C13.4254 20.0625 14.125 19.3629 14.125 18.5C14.125 17.6371 13.4254 16.9375 12.5625 16.9375C11.6996 16.9375 11 17.6371 11 18.5C11 19.3629 11.6996 20.0625 12.5625 20.0625Z" fill="#5451F2"/>
<path d="M21.1638 12.0244C20.7146 12.454 20.1066 12.7187 19.4375 12.7187C18.7684 12.7187 18.1604 12.454 17.7112 12.0244C17.0395 12.5063 16.576 13.2607 16.4852 14.1249H22.3898C22.299 13.2607 21.8354 12.5063 21.1638 12.0244Z" fill="#5451F2"/>
<path d="M14.2888 12.0244C13.8396 12.454 13.2316 12.7187 12.5625 12.7187C11.8934 12.7187 11.2854 12.454 10.8362 12.0244C10.1646 12.5063 9.70098 13.2607 9.61017 14.1249H15.5148C15.424 13.2607 14.9604 12.5063 14.2888 12.0244Z" fill="#5451F2"/>
<path d="M23.9922 20.4469L23.0781 15.4469C23.0374 15.2243 22.8433 15.0625 22.617 15.0625H9.383C9.15662 15.0625 8.96259 15.2243 8.9219 15.4469L8.00778 20.4469C7.95515 20.7348 8.17625 21 8.46887 21H9.05743C9.3384 20.4283 9.758 19.9247 10.2892 19.5436L10.291 19.5423C10.1447 19.2248 10.0625 18.8719 10.0625 18.5C10.0625 17.1215 11.184 16 12.5625 16C13.941 16 15.0625 17.1215 15.0625 18.5C15.0625 18.8719 14.9803 19.2247 14.834 19.5422L14.8358 19.5435C15.3255 19.8949 15.7203 20.3504 15.9992 20.8673C16.2832 20.342 16.6836 19.8887 17.1662 19.5426C17.0198 19.225 16.9375 18.872 16.9375 18.5C16.9375 17.1215 18.059 16 19.4375 16C20.816 16 21.9375 17.1215 21.9375 18.5C21.9375 18.872 21.8552 19.225 21.7088 19.5426C22.2317 19.9175 22.6584 20.4182 22.9447 21H23.5311C23.8237 21 24.0448 20.7348 23.9922 20.4469Z" fill="#5451F2"/>
<path d="M14.2892 20.3052C13.8401 20.735 13.2318 20.9999 12.5625 20.9999C11.8932 20.9999 11.2849 20.735 10.8358 20.3052C10.0843 20.8444 9.59375 21.7253 9.59375 22.7187V22.8749C9.59375 23.1338 9.80362 23.3437 10.0625 23.3437H15.0625C15.3214 23.3437 15.5312 23.1338 15.5312 22.8749V22.7187C15.5312 21.7253 15.0407 20.8444 14.2892 20.3052Z" fill="#5451F2"/>
</g>
<defs>
<clipPath id="clip0_813_725">
<rect width="16" height="16" fill="white" transform="translate(8 8)"/>
</clipPath>
</defs>
</svg>
